<svg xmlns="http://www.w3.org/2000/svg" xmlns:xlink="http://www.w3.org/1999/xlink" viewBox="0,0,256,256" width="48px" height="48px"><g fill="none" fill-rule="nonzero" stroke="none" stroke-width="1" stroke-linecap="butt" stroke-linejoin="miter" stroke-miterlimit="10" stroke-dasharray="" stroke-dashoffset="0" font-family="none" font-weight="none" font-size="none" text-anchor="none" style="mix-blend-mode: normal"><g transform="scale(5.33333,5.33333)"><path d="M24,4c-11,0 -20,9 -20,20c0,11 9,20 20,20c11,0 20,-9 20,-20c0,-11 -9,-20 -20,-20z" fill="#9565b9"></path><rect x="14" y="19" width="4" height="15" fill="#ffffff"></rect><path d="M16,17v0c-1.2,0 -2,-0.9 -2,-2c0,-1.1 0.8,-2 2,-2c1.2,0 2,0.9 2,2c0,1.1 -0.8,2 -2,2z" fill="#ffffff"></path><path d="M35,24.5c0,-3 -2.5,-5.5 -5.5,-5.5c-1.9,0 -3.5,0.9 -4.5,2.3v-2.3h-4v15h4v-8c0,-1.7 1.3,-3 3,-3c1.7,0 3,1.3 3,3v8h4c0,0 0,-9.1 0,-9.5z" fill="#ffffff"></path></g></g></svg>